<svg xmlns="http://www.w3.org/2000/svg" width="375" height="70" viewBox="0 0 375 70" fill="none">
  <path d="M381.686 58.9414C346.564 66.6514 306.278 70.7093 265.991 69.8977C236.034 69.4919 207.111 65.8398 179.22 60.5646C158.56 56.1009 139.966 51.2314 117.241 47.9851C74.888 42.3041 27.3704 47.5794 -5.68522 58.9414C-5.68522 56.5067 -5.68522 54.4777 -6.71821 52.043C-7.7512 43.5215 -5.68522 34.9999 -4.65223 26.4784C-4.65223 21.2032 -4.65223 16.3337 -5.68522 11.0585C29.4364 3.3485 69.723 -0.709382 110.01 0.102193C139.966 0.507981 168.89 4.16007 196.781 9.43531C217.44 13.899 236.034 18.7684 258.76 22.0147C301.113 27.6958 348.63 22.4205 381.686 11.0585C381.686 13.4932 381.686 15.5221 382.719 17.9569C383.752 26.4784 381.686 34.9999 380.653 43.5215C380.653 48.7967 380.653 53.6662 381.686 58.9414Z" fill="#6B705C"/>
</svg>