<?xml version="1.0" ?><!DOCTYPE svg  PUBLIC '-//W3C//DTD SVG 1.1//EN'  'http://www.w3.org/Graphics/SVG/1.1/DTD/svg11.dtd'><svg height="512px" fill="#DEACF5" style="enable-background:new 0 0 512 512;" version="1.1" viewBox="0 0 512 512" width="512px" xml:space="preserve" xmlns="http://www.w3.org/2000/svg" xmlns:xlink="http://www.w3.org/1999/xlink"><g id="C_-_170_x2C__advertising_x2C__branding_x2C__identity_x2C__corporate"><g><rect height="80.011" style="fill-rule:evenodd;clip-rule:evenodd;" width="170.24" x="72.092" y="90.861"/><polygon points="202.109,371.435 316.891,314.316 247.018,314.316 87.338,314.316       " style="fill-rule:evenodd;clip-rule:evenodd;"/><polygon points="292.176,246.386 247.018,246.386 147.246,246.386 147.246,269.071     247.018,269.071 292.176,269.071   " style="fill-rule:evenodd;clip-rule:evenodd;"/><path d="M332.139,317.197l-127.942,63.666c-0.657,0.327-1.372,0.49-2.087,0.49    c-0.715,0-1.431-0.163-2.087-0.49L72.092,317.197v25.953v95.871h174.926h85.121V317.197z" style="fill-rule:evenodd;clip-rule:evenodd;"/><path d="M101.531,257.725c0,6.256,5.121,11.347,11.414,11.347h24.929v-22.686    h-24.929C106.652,246.386,101.531,251.472,101.531,257.725z" style="fill-rule:evenodd;clip-rule:evenodd;"/><path d="M251.704,175.557v61.458h45.158c0.034,0,0.066,0.007,0.1,0.008    c0.186,0.003,0.37,0.019,0.555,0.045c0.059,0.008,0.115,0.016,0.174,0.025c0.031,0.005,0.061,0.008,0.091,0.014    c0.011,0.003,0.022,0.003,0.033,0.006c0.184,0.037,0.366,0.087,0.546,0.148l45.495,15.349c1.884,0.635,3.161,2.39,3.188,4.377    c0.025,1.988-1.204,3.775-3.07,4.461l-45.495,16.707c-0.131,0.049-0.268,0.073-0.402,0.109c-0.111,0.03-0.218,0.067-0.332,0.09    c-0.021,0.003-0.041,0.013-0.063,0.016c-0.271,0.049-0.545,0.072-0.817,0.072h-0.001h-45.158v26.505h85.121    c0.299,0,0.59,0.033,0.875,0.088c0.1,0.019,0.194,0.051,0.291,0.075c0.182,0.048,0.359,0.099,0.531,0.166    c0.108,0.042,0.21,0.091,0.313,0.14c0.155,0.074,0.304,0.154,0.448,0.245c0.098,0.06,0.192,0.121,0.285,0.189    c0.141,0.102,0.272,0.214,0.401,0.331c0.079,0.072,0.16,0.141,0.233,0.219c0.133,0.138,0.251,0.289,0.366,0.442    c0.054,0.072,0.114,0.14,0.163,0.215c0.154,0.232,0.291,0.479,0.403,0.741c0.019,0.044,0.027,0.094,0.046,0.14    c0.078,0.202,0.152,0.406,0.203,0.621c0.004,0.021,0.004,0.043,0.009,0.064c0.021,0.096,0.028,0.194,0.044,0.293    c0.03,0.2,0.055,0.398,0.06,0.598c0.001,0.04,0.013,0.077,0.013,0.117v134.076c0,2.588-2.098,4.685-4.686,4.685h-85.121v17.44    h215.142V90.861H251.704V175.557z M422.236,110.552h16.465v16.396h-16.465V110.552z M374.805,110.552h16.466v16.396h-16.466    V110.552z M327.374,110.552h16.465v16.396h-16.465V110.552z M279.942,110.552h16.466v16.396h-16.466V110.552z" style="fill-rule:evenodd;clip-rule:evenodd;"/><path d="M242.333,278.441H142.56h-29.615c-11.461,0-20.785-9.294-20.785-20.717    c0-11.419,9.324-20.71,20.785-20.71h29.615h99.772v-56.772H67.407H45.154v158.222h17.567v-28.834c0-0.04,0.011-0.077,0.012-0.117    c0.005-0.199,0.029-0.397,0.061-0.598c0.016-0.099,0.022-0.197,0.043-0.293c0.004-0.021,0.004-0.043,0.009-0.064    c0.051-0.219,0.126-0.426,0.206-0.629c0.017-0.043,0.025-0.089,0.043-0.131c0.111-0.263,0.249-0.51,0.403-0.743    c0.048-0.073,0.106-0.137,0.157-0.206c0.117-0.158,0.238-0.312,0.374-0.452c0.072-0.076,0.15-0.143,0.228-0.214    c0.131-0.119,0.265-0.232,0.408-0.336c0.09-0.066,0.184-0.128,0.279-0.188c0.146-0.09,0.297-0.172,0.454-0.246    c0.102-0.048,0.203-0.097,0.309-0.139c0.173-0.067,0.353-0.119,0.535-0.166c0.097-0.024,0.189-0.057,0.289-0.074    c0.286-0.056,0.577-0.089,0.876-0.089h174.926V278.441z M206.654,200.427h16.466v16.396h-16.466V200.427z M159.222,200.427h16.467    v16.396h-16.467V200.427z M111.792,200.427h16.466v16.396h-16.466V200.427z M80.825,216.822H64.367v-16.396h16.458V216.822z" style="fill-rule:evenodd;clip-rule:evenodd;"/><rect height="35.321" style="fill-rule:evenodd;clip-rule:evenodd;" width="215.142" x="251.704" y="46.169"/><polygon points="301.547,267.044 328.254,257.236 301.547,248.226   " style="fill-rule:evenodd;clip-rule:evenodd;"/></g></g><g id="Layer_1"/></svg>