<svg xmlns="http://www.w3.org/2000/svg" width="85" height="18" viewBox="0 0 85 18" fill="none">
  <path d="M8.5 0.444458L10.4084 6.31781L16.584 6.31781L11.5878 9.94775L13.4962 15.8211L8.5 12.1912L3.50383 15.8211L5.41219 9.94775L0.416019 6.31781L6.59163 6.31781L8.5 0.444458Z" fill="#FFFFFF"/>
  <path d="M25.5 0.444458L27.4084 6.31781L33.584 6.31781L28.5878 9.94775L30.4962 15.8211L25.5 12.1912L20.5038 15.8211L22.4122 9.94775L17.416 6.31781L23.5916 6.31781L25.5 0.444458Z" fill="#FFFFFF"/>
  <path d="M42.5 0.444458L44.4084 6.31781L50.584 6.31781L45.5878 9.94775L47.4962 15.8211L42.5 12.1912L37.5038 15.8211L39.4122 9.94775L34.416 6.31781L40.5916 6.31781L42.5 0.444458Z" fill="#FFFFFF"/>
  <path d="M59.5 0.444458L61.4084 6.31781L67.584 6.31781L62.5878 9.94775L64.4962 15.8211L59.5 12.1912L54.5038 15.8211L56.4122 9.94775L51.416 6.31781L57.5916 6.31781L59.5 0.444458Z" fill="#FFFFFF"/>
  <path d="M76.5 0.444458L78.4084 6.31781L84.584 6.31781L79.5878 9.94775L81.4962 15.8211L76.5 12.1912L71.5038 15.8211L73.4122 9.94775L68.416 6.31781L74.5916 6.31781L76.5 0.444458Z" fill="#FFFFFF"/>
</svg>