<svg xmlns="http://www.w3.org/2000/svg" width="73" height="42" viewBox="0 0 73 42" fill="none">
  <path d="M15.8343 18.9729L14.1033 12.9181L9.72362 12.884L8.02328 18.912L7.32361 18.9065L11.7147 4.56598L11.0879 3.93988L11.9232 3.94628C12.4873 3.99355 12.9372 4.1898 13.1786 5.00574L17.1663 18.9832L15.8345 18.9728L15.8343 18.9729ZM11.9122 5.23172L9.86262 12.4781L13.994 12.5102L11.9122 5.23172Z" fill="#242525"/>
  <path d="M25.573 18.0207L19.1112 5.54509L18.9947 18.9977L18.5658 18.9943L18.6896 4.70627L18.3118 3.99631L19.7791 4.00774L26.1307 16.1825L26.2356 4.05806L26.6871 4.06157L26.5573 19.0565C26.1509 19.0533 25.8615 18.5797 25.5729 18.0205L25.573 18.0207Z" fill="#242525"/>
  <path d="M31.9247 4.10243C36.598 4.13887 39.5723 7.39684 39.5355 11.6597C39.4986 15.9225 36.4681 19.1338 31.7951 19.0974L31.2082 19.0928L29.8084 19.0818C28.9279 19.075 28.5022 18.7288 28.5099 17.8292L28.6237 4.69788L27.9743 4.07162L31.9247 4.10243ZM29.8342 18.6751L31.7984 18.6904C35.6814 18.7207 38.191 15.6982 38.2262 11.6496C38.2612 7.60101 35.8046 4.4969 31.9217 4.46671L29.9575 4.45146L29.8342 18.6751Z" fill="#242525"/>
  <path d="M48.1491 18.0895L47.2217 15.6828C46.3382 13.448 45.7229 11.4936 44.436 11.4837L42.7427 11.4704L42.676 19.1822L41.367 19.1719L41.4914 4.79822L40.842 4.17197L46.0568 4.21268C48.4949 4.23174 49.8815 5.76344 49.8631 7.88418C49.8455 9.91923 48.5233 11.387 46.2872 11.498L45.7455 11.4939C46.8455 12.2309 47.7349 13.7803 48.4888 15.3716C49.353 17.2635 49.8635 18.2743 50.5549 19.2438C48.9972 19.2316 48.5244 19.0564 48.1491 18.0895ZM48.531 7.87381C48.5486 5.86027 47.4528 4.63049 45.7147 4.61707L42.8023 4.59435L42.7463 11.0636L45.6586 11.0863C47.3967 11.0999 48.5135 9.90871 48.531 7.87381Z" fill="#242525"/>
  <path d="M53.8676 4.27367L53.7378 19.2686L52.4286 19.2584L52.553 4.88467L51.9036 4.25842L53.8676 4.27367Z" fill="#242525"/>
  <path d="M63.5582 19.3452L61.827 13.2903L57.4473 13.2562L55.7471 19.2842L55.0475 19.2787L59.4385 4.9382L58.8118 4.3121L59.6471 4.31851C60.2112 4.36578 60.6611 4.56202 60.9025 5.37796L64.8902 19.3554L63.5583 19.345L63.5582 19.3452ZM59.636 5.60395L57.5863 12.8503L61.7177 12.8825L59.636 5.60395Z" fill="#242525"/>
  <path d="M3.35006 22.7829L7.67201 36.4628L12.254 22.8523L13.6238 22.863L13.4937 37.8578L12.124 37.8472L12.241 24.3518L7.68406 37.8126C7.07004 37.8079 6.5767 37.5042 6.34658 36.7954L2.36981 24.1891L2.25218 37.7702L1.77989 37.7666L1.90443 23.3929L1.22484 22.7663L3.35038 22.7829H3.35006Z" fill="#242525"/>
  <path d="M24.3714 22.7326C29.3547 22.7715 32.5367 26.2454 32.4999 30.5082C32.4631 34.771 29.2212 38.1949 24.2378 38.156C19.2544 38.1171 16.0725 34.6433 16.1093 30.3804C16.1461 26.1176 19.388 22.6937 24.3714 22.7326ZM17.5973 30.3919C17.5623 34.4405 20.1081 37.7381 24.2412 37.7702C28.3743 37.8026 30.977 34.5452 31.012 30.4965C31.0472 26.4479 28.5013 23.1504 24.3681 23.1181C20.235 23.0858 17.6325 26.3431 17.5973 30.3919Z" fill="#242525"/>
  <path d="M42.6277 22.875C47.6109 22.9139 50.793 26.3878 50.7561 30.6506C50.7193 34.9135 47.4774 38.3373 42.4941 38.2985C37.5111 38.2596 34.3288 34.7857 34.3656 30.5228C34.4024 26.26 37.6446 22.8361 42.6277 22.875ZM35.8535 30.5343C35.8184 34.5829 38.3644 37.8805 42.4973 37.9127C46.6305 37.945 49.2331 34.6876 49.2682 30.639C49.3034 26.5904 46.7574 23.2928 42.6243 23.2607C38.4913 23.2285 35.8885 26.4855 35.8535 30.5343Z" fill="#242525"/>
  <path d="M60.4787 37.0889L59.5075 34.682C58.582 32.4469 57.9376 30.4923 56.5915 30.4818L54.8204 30.4679L54.7536 38.1795L53.3838 38.169L53.5083 23.7953L52.8287 23.1687L58.2842 23.2112C60.835 23.2311 62.2859 24.7635 62.2676 26.8841C62.2501 28.9192 60.8674 30.3865 58.5282 30.4968L57.9614 30.4923C59.1123 31.2296 60.0437 32.7794 60.8329 34.3708C61.7375 36.2631 62.2721 37.2742 62.9959 38.2437C61.3661 38.231 60.8716 38.056 60.4787 37.0889ZM60.8742 26.8733C60.8916 24.8597 59.7451 23.6298 57.9265 23.6155L54.8799 23.5917L54.8236 30.061L57.8703 30.0848C59.6887 30.0989 60.8567 28.9083 60.8742 26.8733Z" fill="#242525"/>
  <path d="M71.5572 23.3148L71.5519 23.936L65.4369 23.674L65.3806 30.1433L70.4347 30.1826L70.4314 30.5896L65.3773 30.5503L65.314 37.8549L71.4799 37.6887L71.4744 38.3099L65.3104 38.2618C64.3895 38.2547 63.9437 37.9084 63.9516 37.0087L64.0653 23.8774L63.3857 23.2509L71.5572 23.3148Z" fill="#242525"/>
</svg>