<svg xmlns="http://www.w3.org/2000/svg" width="91" height="19" viewBox="0 0 91 19" fill="none">
  <path d="M0.28375 6.46965H3.85207V17.5657H0.28375V6.46965ZM2.06841 0.955261C3.20947 0.955261 4.13431 1.85156 4.13431 2.95375C4.13431 4.05741 3.20997 4.95516 2.06841 4.95516C0.924334 4.95516 0 4.05741 0 2.95375C0 1.85156 0.924334 0.955261 2.06841 0.955261Z" fill="#6B705C"/>
  <path d="M6.08731 6.4697H9.50493V7.98759H9.55181C10.0286 7.11422 11.1903 6.19501 12.9256 6.19501C16.5327 6.19501 17.198 8.49161 17.198 11.4801V17.5658H13.6377V12.1709C13.6377 10.8829 13.6115 9.22835 11.786 9.22835C9.93132 9.22835 9.64858 10.6301 9.64858 12.0768V17.5653H6.08781L6.08731 6.4697Z" fill="#6B705C"/>
  <path d="M48.2462 3.76154C47.6263 3.76154 47.1233 4.22948 47.1233 4.80726C47.1233 5.38457 47.6258 5.85299 48.2462 5.85299C48.8662 5.85299 49.3691 5.38504 49.3691 4.80726C49.3691 4.22948 48.8667 3.76154 48.2462 3.76154Z" fill="#6B705C"/>
  <path d="M43.2546 5.10248C40.654 5.10248 38.5382 7.07284 38.5382 9.49473C38.5382 11.9166 40.654 13.887 43.2546 13.887C45.8553 13.887 47.9711 11.9166 47.9711 9.49473C47.9711 7.07284 45.8553 5.10248 43.2546 5.10248ZM43.2546 12.3085C41.5889 12.3085 40.2331 11.0464 40.2331 9.49473C40.2331 7.94303 41.5884 6.68093 43.2546 6.68093C44.9203 6.68093 46.2756 7.94303 46.2756 9.49473C46.2756 11.0464 44.9203 12.3085 43.2546 12.3085Z" fill="#6B705C"/>
  <path d="M46.9988 18.7908H39.3527C36.1805 18.7908 33.6 16.3877 33.6 13.4336V6.31251C33.6 3.35837 36.1805 0.955261 39.3527 0.955261H46.9988C50.171 0.955261 52.752 3.35837 52.752 6.31251V13.4336C52.752 16.3877 50.171 18.7908 46.9988 18.7908ZM39.3527 2.63321C37.1739 2.63321 35.4018 4.28348 35.4018 6.31251V13.4336C35.4018 15.4626 37.1739 17.1129 39.3527 17.1129H46.9988C49.1776 17.1129 50.9502 15.4626 50.9502 13.4336V6.31251C50.9502 4.28348 49.1776 2.63321 46.9988 2.63321H39.3527Z" fill="#6B705C"/>
  <path d="M75.6831 7.71854C75.6797 7.76973 75.6764 7.81229 75.6764 7.85255C75.6764 8.88493 75.6788 11.1188 75.6788 11.1188C75.6788 11.1188 79.2799 11.1188 79.4756 11.1188C79.4756 11.4547 79.1421 12.8062 78.0818 13.6649C77.4591 14.1664 76.7608 14.3988 76.02 14.4552C75.498 14.4948 74.9833 14.4322 74.4821 14.2424C72.8984 13.635 71.7195 11.9257 71.5586 9.84311C71.5191 9.32893 71.5465 8.81476 71.6444 8.30864C72.1157 5.84531 74.0691 4.01981 76.3087 4.41378C77.3005 4.5892 77.8716 5.08211 78.3917 5.61238C79.0775 4.79281 79.7561 3.98359 80.4549 3.14849C80.2853 3.0024 79.8934 2.52791 79.1985 2.04767C78.157 1.32989 77.035 0.970424 75.834 0.956045C75.6079 0.951444 75.3814 0.968114 75.1559 0.979617C74.7597 0.998597 74.3708 1.07913 73.9876 1.19703C72.454 1.6629 71.1807 2.62453 70.1831 4.09229C69.2245 5.50138 68.7088 7.1204 68.6143 8.92692C68.5724 9.69185 68.6225 10.4551 68.7642 11.2056C69.1638 13.302 70.0848 14.9929 71.5383 16.2634C72.6642 17.2469 73.9331 17.7726 75.3241 17.8629C76.1077 17.9141 76.8861 17.8278 77.6485 17.5897C79.0698 17.1462 80.2501 16.2617 81.1373 14.8526C82.4208 12.8126 82.7326 10.1997 82.3533 7.71796C80.1233 7.71854 77.9068 7.71854 75.6831 7.71854Z" fill="#6B705C"/>
  <path d="M90.9291 7.8296H88.5261V4.96138V4.87683H88.4558H86.661H86.5901V4.96138V7.8296H84.1876H84.1172V7.91243V10.0543V10.1394H84.1876H86.5901V13.007V13.091H86.661H88.4558H88.5261V13.007V10.1394H90.9291H91V10.0543V7.91243V7.8296H90.9291Z" fill="#6B705C"/>
</svg>