<?xml version="1.0" encoding="UTF-8"?>
<svg id="a" data-name="Layer 1" xmlns="http://www.w3.org/2000/svg" width="258" height="65.987" viewBox="0 0 258 65.987">
  <g>
    <g>
      <path d="M0,56.854l.003-.527s1.625-.026,2.656-4.011l5.322-20.452c.732-2.847.511-3.815.067-5.665l2.794.031c2.729.03,3.311.432,4.166,4.087l5.291,22.151c.982,4.184,2.444,4.112,2.444,4.112l-.003.527-10.233-.114.003-.527s2.146-.24,1.069-4.863l-1.393-6.033-6.465-.072c-.466,1.839-.965,3.723-1.431,5.518-1.364,5.255.942,5.369.942,5.369l-.003.527-5.23-.058ZM6.255,43.352l5.393.06-2.594-11.492-2.798,11.432Z" fill="#deacf5" stroke-width="0"/>
      <path d="M29.109,57.178l-5.393-.06.003-.527s2.017-.461,2.032-2.964l.137-22.486c.024-3.997-1.989-4.195-1.989-4.195l.004-.571,7.992.089,8.813,20.038.092-15.196c.027-4.436-1.924-4.194-1.924-4.194l.004-.571,5.101.057-.004.615c-.293-.003-2.016.285-2.039,4.106l-.158,26-3.378-.038-11.38-25.206-.126,20.73c-.023,3.821,2.219,3.802,2.219,3.802l-.004.571Z" fill="#deacf5" stroke-width="0"/>
      <path d="M44.118,57.345l.003-.483s2.016-.241,2.034-3.228l.141-23.145c.019-3.162-1.995-3.272-1.995-3.272l.004-.615,9.551.106c2.079.023,3.865.175,5.388.85,4.957,2.207,6.877,7.016,6.832,14.438-.044,7.247-2.414,12.271-7.43,14.455-1.694.684-3.613,1.014-5.821.99l-8.707-.097ZM52.143,52.032c-.008,1.274.116,2.241.405,2.816.609,1.368,2.463.994,3.671.129.685-.52,1.308-1.347,1.834-2.439,1.316-2.621,1.699-6.789,1.719-10.127.029-4.787-.716-10.549-3.332-13.082-1.034-.978-1.974-1.34-3.371-1.355-.487-.005-.781.299-.787,1.177l-.139,22.882Z" fill="#deacf5" stroke-width="0"/>
      <path d="M97.812,59.303s-2.022,6.61-7.415,6.55c-5.393-.06-8.263-8.92-9.758-14.119-.636-2.247-1.268-5.241-3.176-6.624-1.073.12-2.145.02-2.145.02l-.048,7.949c-.022,3.645,2.184,4.197,2.184,4.197l-.003.439-10.168-.113.004-.571s2.015-.109,2.04-4.15l.048-7.818c-2.405.105-4.346,1.314-4.358,3.29-.01,1.625-2.304,2.683-.973,2.961-.758,1.748-2.325,2.624-2.294-2.603.032-5.182,5.197-5.213,7.634-5.186l5.945.066c.91.01,1.625-.07,2.146-.196,2.408-.632,3.628-3.517,3.652-7.47.033-5.358-2.347-9.425-5.704-7.662l-.086,14.098-5.945-.066.065-10.628c.024-4.04-1.989-4.195-1.989-4.195l.004-.615,10.656.118c2.079.023,3.799.306,5.095.935,2.591,1.258,3.94,3.865,3.916,7.774-.023,3.821-1.536,6.835-4.24,8.079-1.271.601-2.409.808-2.8.891,8.143,1.935,6.445,19.353,17.715,14.647Z" fill="#deacf5" stroke-width="0"/>
      <path d="M93.404,30.968c.016-2.679-1.377-3.31-2.059-3.273l.004-.571,10.071.112-.004.571c-.812-.009-2.053,1.075-2.066,3.227l-.14,23.101c-.016,2.723,1.475,3.267,2.027,3.273l-.004.571-10.038-.112.004-.571c.552.006,2.05-.46,2.066-3.227l.14-23.101Z" fill="#deacf5" stroke-width="0"/>
      <path d="M101.232,57.979l.003-.527s1.624-.026,2.656-4.011l5.323-20.452c.732-2.847.511-3.815.067-5.665l2.794.031c2.729.03,3.311.432,4.166,4.087l5.291,22.151c.982,4.184,2.444,4.112,2.444,4.112l-.003.527-10.233-.114.003-.527s2.146-.24,1.069-4.863l-1.393-6.033-6.465-.072c-.466,1.839-.965,3.723-1.431,5.518-1.364,5.255.942,5.369.942,5.369l-.003.527-5.23-.058ZM107.488,44.477l5.393.06-2.594-11.492-2.798,11.432Z" fill="#deacf5" stroke-width="0"/>
    </g>
    <g>
      <path d="M136.609,56.866l.004-.571s2.278.069,2.298-3.225l.176-23.057c.019-3.074-1.831-3.314-1.831-3.314l.004-.571,8.081.09.695,2.775,3.79,14.888,4.397-14.665.836-2.889,7.689.085-.004.571s-1.855.594-1.877,4.152l-.058,21.257c-.024,3.953,2.395,4.199,2.395,4.199l-.004.571-10.68-.119.004-.571s1.924-.198,1.948-4.151l.048-19.676-7.27,24.515-.391-.048-6.614-24.626-.054,20.599c-.021,3.469,2.154,2.967,2.152,3.274l-.004.571-5.731-.064Z" fill="#deacf5" stroke-width="0"/>
      <path d="M163.143,42.11c.067-11.111,5.4-15.708,11.701-15.638,6.265.07,11.393,5.792,11.405,15.543-.024,9.751-4.756,15.144-11.022,15.25s-12.151-4.044-12.083-15.155ZM174.55,27.962c-4.023-.045-4.435,9.306-4.357,14.007.043,4.656.771,13.756,4.936,13.714,4.13-.042,4.292-9.088,4.178-13.701-.15-4.657-.734-13.931-4.757-14.02Z" fill="#deacf5" stroke-width="0"/>
      <path d="M187.313,42.378c.067-11.111,5.4-15.708,11.701-15.638,6.265.07,11.393,5.792,11.405,15.543-.024,9.751-4.756,15.144-11.022,15.25-6.266.106-12.151-4.044-12.083-15.155ZM198.72,28.23c-4.023-.045-4.435,9.306-4.357,14.007.043,4.656.771,13.756,4.936,13.714,4.13-.042,4.292-9.088,4.178-13.701-.15-4.657-.734-13.931-4.757-14.02Z" fill="#deacf5" stroke-width="0"/>
      <path d="M244.846,59.444s-2.212,6.607-8.121,6.542c-5.909-.066-9.06-8.929-10.701-14.13-.698-2.248-1.392-5.242-3.484-6.627-1.176.119-2.35.018-2.35.018l-.048,7.949c-.022,3.645,2.396,4.199,2.396,4.199l-.003.439-11.142-.124.004-.571s2.208-.107,2.233-4.148l.048-7.817c-2.635.102-4.338,1.203-4.35,3.18-.01,1.625-1.945,2.023-.487,2.303-.829,1.748-3.548,3.384-3.517-1.842.032-5.182,5.692-5.207,8.362-5.178l6.515.072c.997.011,1.78-.068,2.351-.194,2.638-.63,3.973-3.514,3.997-7.466.033-5.358-2.577-9.428-6.255-7.668l-.086,14.098-6.515-.072.065-10.628c.024-4.04-2.182-4.197-2.182-4.197l.004-.615,11.676.13c2.278.025,4.163.31,5.584.941,2.84,1.261,4.32,3.869,4.296,7.778-.023,3.821-1.679,6.833-4.642,8.074-1.392.6-2.639.805-3.067.888,8.924,1.944,7.074,19.36,19.42,14.666Z" fill="#deacf5" stroke-width="0"/>
      <path d="M257.491,58.223l-19.935-.222.003-.527s2.206.156,2.227-3.225l.14-23.101c.019-3.206-2.187-3.274-2.187-3.274l.004-.615,19.117.213.099,7.072-.463-.005c-.121-3.603-.787-5.279-2.422-5.649-.427-.093-.996-.143-1.744-.151l-5.874-.065-.079,12.956,5.269.059c1.816.02,3.066-.669,3.299-3.96l.392.004c-.162,3.248-.182,6.498-.095,9.749l-.391-.004c-.265-3.341-1.256-4.187-3.214-4.208l-5.269-.058-.059,9.706c-.007,1.23.058,2.109.162,2.593.104.528.351.838.706,1.018.39.18.995.275,1.885.285l4.201.047c2.456.027,3.859-2.329,4.204-6.234l.534.006-.509,7.593Z" fill="#deacf5" stroke-width="0"/>
    </g>
  </g>
  <path d="M96.409,23.673c0-8.784-2.258-11.836-8.755-11.836,6.498,0,8.755-3.052,8.755-11.836,0,8.784,2.258,11.836,8.755,11.836-6.498,0-8.755,3.052-8.755,11.836Z" fill="#deacf5" stroke-width="0"/>
</svg>