<?xml version="1.0" encoding="utf-8"?>
<!-- Generator: Adobe Illustrator 28.1.0, SVG Export Plug-In . SVG Version: 6.00 Build 0)  -->
<svg version="1.1" id="Layer_1" xmlns="http://www.w3.org/2000/svg" xmlns:xlink="http://www.w3.org/1999/xlink" x="0px" y="0px"
	 width="1080px" height="1080px" viewBox="0 0 1080 1080" style="enable-background:new 0 0 1080 1080;" xml:space="preserve">
<style type="text/css">
	.st0{fill:#242525;}
</style>
<g>
	<g>
		<g>
			<g>
				<g>
					<path class="st0" d="M8.84,515.84l0.01-1.6c0,0,6.68-0.08,10.91-12.19l21.87-62.17c3.01-8.65,2.1-11.6,0.28-17.22l11.48,0.09
						c11.21,0.09,13.61,1.31,17.12,12.42l21.74,67.33c4.04,12.72,10.04,12.5,10.04,12.5l-0.01,1.6l-42.05-0.35l0.01-1.6
						c0,0,8.82-0.73,4.39-14.78l-5.72-18.34l-26.57-0.22c-1.92,5.59-3.96,11.32-5.88,16.77c-5.61,15.97,3.87,16.32,3.87,16.32
						l-0.01,1.6L8.84,515.84z M34.54,474.8l22.16,0.18l-10.66-34.93L34.54,474.8z"/>
					<path class="st0" d="M128.45,516.82l-22.16-0.18l0.01-1.6c0,0,8.29-1.4,8.35-9.01l0.56-68.35c0.1-12.15-8.17-12.75-8.17-12.75
						l0.01-1.74l32.84,0.27l36.21,60.91l0.38-46.19c0.11-13.48-7.91-12.75-7.91-12.75l0.01-1.74l20.96,0.17l-0.02,1.87
						c-1.2-0.01-8.29,0.87-8.38,12.48l-0.65,79.03l-13.88-0.11l-46.76-76.62l-0.52,63.01c-0.1,11.61,9.12,11.56,9.12,11.56
						L128.45,516.82z"/>
					<path class="st0" d="M190.13,517.33l0.01-1.47c0,0,8.28-0.73,8.36-9.81l0.58-70.35c0.08-9.61-8.2-9.95-8.2-9.95l0.02-1.87
						l39.25,0.32c8.54,0.07,15.88,0.53,22.14,2.58c20.37,6.71,28.26,21.33,28.07,43.89c-0.18,22.03-9.92,37.3-30.53,43.94
						c-6.96,2.08-14.84,3.08-23.92,3.01L190.13,517.33z M223.1,501.18c-0.03,3.87,0.48,6.81,1.67,8.56
						c2.5,4.16,10.12,3.02,15.08,0.39c2.82-1.58,5.37-4.09,7.54-7.41c5.41-7.97,6.98-20.64,7.06-30.78
						c0.12-14.55-2.94-32.06-13.69-39.76c-4.25-2.97-8.11-4.07-13.85-4.12c-2-0.02-3.21,0.91-3.23,3.58L223.1,501.18z"/>
					<path class="st0" d="M410.77,523.28c0,0-8.31,20.09-30.47,19.91c-22.16-0.18-33.95-27.11-40.1-42.92
						c-2.61-6.83-5.21-15.93-13.05-20.13c-4.41,0.36-8.81,0.06-8.81,0.06l-0.2,24.16c-0.09,11.08,8.97,12.76,8.97,12.76l-0.01,1.33
						l-41.78-0.34l0.01-1.74c0,0,8.28-0.33,8.38-12.61l0.2-23.76c-9.88,0.32-17.86,3.99-17.91,10c-0.04,4.94-9.47,8.15-4,9
						c-3.12,5.31-9.56,7.98-9.43-7.91c0.13-15.75,21.36-15.84,31.37-15.76l24.43,0.2c3.74,0.03,6.68-0.21,8.82-0.6
						c9.89-1.92,14.91-10.69,15-22.71c0.13-16.29-9.64-28.65-23.44-23.29l-0.35,42.85l-24.43-0.2l0.27-32.31
						c0.1-12.28-8.17-12.75-8.17-12.75l0.02-1.87l43.79,0.36c8.54,0.07,15.61,0.93,20.94,2.84c10.65,3.83,16.19,11.75,16.09,23.63
						c-0.1,11.61-6.31,20.78-17.42,24.56c-5.22,1.83-9.9,2.46-11.5,2.71C371.43,484.64,364.46,537.58,410.77,523.28z"/>
					<path class="st0" d="M392.65,437.15c0.07-8.14-5.66-10.06-8.46-9.95l0.01-1.74l41.38,0.34l-0.01,1.74
						c-3.34-0.03-8.44,3.27-8.49,9.81l-0.58,70.22c-0.07,8.28,6.06,9.93,8.33,9.95l-0.01,1.74l-41.25-0.34l0.01-1.74
						c2.27,0.02,8.42-1.4,8.49-9.81L392.65,437.15z"/>
					<path class="st0" d="M424.82,519.26l0.01-1.6c0,0,6.67-0.08,10.91-12.19l21.87-62.17c3.01-8.65,2.1-11.6,0.28-17.22l11.48,0.09
						c11.21,0.09,13.61,1.31,17.12,12.42l21.74,67.33c4.04,12.72,10.04,12.5,10.04,12.5l-0.01,1.6l-42.05-0.35l0.01-1.6
						c0,0,8.82-0.73,4.39-14.78l-5.72-18.34l-26.57-0.22c-1.92,5.59-3.96,11.32-5.88,16.77c-5.61,15.97,3.87,16.32,3.87,16.32
						l-0.01,1.6L424.82,519.26z M450.53,478.22l22.16,0.18l-10.66-34.93L450.53,478.22z"/>
				</g>
				<g>
					<path class="st0" d="M570.19,515.87l0.01-1.74c0,0,9.36,0.21,9.44-9.8l0.72-70.08c0.08-9.34-7.53-10.07-7.53-10.07l0.01-1.74
						l33.21,0.27l2.86,8.43l15.57,45.25l18.07-44.58l3.44-8.78l31.6,0.26l-0.01,1.74c0,0-7.62,1.81-7.71,12.62l-0.24,64.61
						c-0.1,12.01,9.84,12.76,9.84,12.76l-0.01,1.74l-43.88-0.36l0.01-1.74c0,0,7.91-0.6,8-12.62l0.2-59.81l-29.87,74.52l-1.61-0.15
						l-27.18-74.85l-0.22,62.61c-0.09,10.55,8.85,9.02,8.84,9.95l-0.01,1.74L570.19,515.87z"/>
					<path class="st0" d="M679.22,471.02c0.28-33.77,22.19-47.75,48.08-47.53c25.75,0.21,46.81,17.61,46.86,47.24
						c-0.1,29.64-19.54,46.03-45.29,46.35S678.95,504.79,679.22,471.02z M726.1,428.02c-16.53-0.14-18.23,28.29-17.9,42.57
						c0.18,14.15,3.17,41.81,20.28,41.69c16.97-0.13,17.64-27.62,17.17-41.65C745.03,456.47,742.63,428.28,726.1,428.02z"/>
					<path class="st0" d="M778.55,471.83c0.28-33.77,22.19-47.75,48.08-47.53c25.75,0.21,46.81,17.61,46.86,47.24
						c-0.1,29.64-19.54,46.03-45.29,46.35C802.45,518.22,778.27,505.61,778.55,471.83z M825.42,428.83
						c-16.53-0.14-18.23,28.29-17.9,42.57c0.18,14.15,3.17,41.81,20.28,41.69c16.97-0.13,17.64-27.62,17.17-41.65
						C844.35,457.29,841.95,429.1,825.42,428.83z"/>
					<path class="st0" d="M1014.96,523.71c0,0-9.09,20.08-33.37,19.88c-24.28-0.2-37.23-27.14-43.97-42.95
						c-2.87-6.83-5.72-15.93-14.32-20.14c-4.83,0.36-9.66,0.05-9.66,0.05l-0.2,24.16c-0.09,11.08,9.84,12.76,9.84,12.76l-0.01,1.33
						l-45.79-0.38l0.01-1.74c0,0,9.07-0.33,9.17-12.61l0.2-23.76c-10.83,0.31-17.82,3.66-17.87,9.66c-0.04,4.94-7.99,6.15-2,7
						c-3.41,5.31-14.58,10.29-14.45-5.6c0.13-15.75,23.39-15.83,34.36-15.74l26.77,0.22c4.1,0.03,7.32-0.21,9.66-0.59
						c10.84-1.91,16.33-10.68,16.42-22.69c0.13-16.29-10.59-28.66-25.7-23.31l-0.35,42.85l-26.77-0.22l0.27-32.31
						c0.1-12.28-8.97-12.76-8.97-12.76l0.02-1.87l47.98,0.39c9.36,0.08,17.11,0.94,22.94,2.86c11.67,3.83,17.75,11.76,17.65,23.64
						c-0.1,11.61-6.9,20.77-19.07,24.54c-5.72,1.82-10.85,2.45-12.6,2.7C971.83,485.04,964.23,537.98,1014.96,523.71z"/>
					<path class="st0" d="M1066.92,520L985,519.32l0.01-1.6c0,0,9.07,0.48,9.15-9.8l0.58-70.22c0.08-9.74-8.99-9.95-8.99-9.95
						l0.02-1.87l78.55,0.65l0.41,21.5l-1.9-0.02c-0.5-10.95-3.23-16.05-9.95-17.17c-1.75-0.28-4.09-0.43-7.17-0.46l-24.14-0.2
						l-0.32,39.38l21.65,0.18c7.46,0.06,12.6-2.03,13.56-12.04l1.61,0.01c-0.67,9.87-0.75,19.75-0.39,29.63l-1.61-0.01
						c-1.09-10.16-5.16-12.73-13.21-12.79l-21.65-0.18l-0.24,29.5c-0.03,3.74,0.24,6.41,0.67,7.88c0.43,1.61,1.44,2.55,2.9,3.09
						c1.6,0.55,4.09,0.83,7.75,0.87l17.26,0.14c10.09,0.08,15.86-7.08,17.27-18.95l2.19,0.02L1066.92,520z"/>
				</g>
			</g>
			<path class="st0" d="M405,414.98c0-26.7-9.28-35.98-35.98-35.98c26.7,0,35.98-9.28,35.98-35.98c0,26.7,9.28,35.98,35.98,35.98
				C414.28,379,405,388.28,405,414.98z"/>
		</g>
	</g>
</g>
<path class="st0" d="M777,439"/>
</svg>
